<?xml version="1.0" standalone="no"?>
<!DOCTYPE svg PUBLIC "-//W3C//DTD SVG 20010904//EN"
 "http://www.w3.org/TR/2001/REC-SVG-20010904/DTD/svg10.dtd">
<svg version="1.0" xmlns="http://www.w3.org/2000/svg"
 width="236.000000pt" height="293.000000pt" viewBox="0 0 236.000000 293.000000"
 preserveAspectRatio="xMidYMid meet">
<metadata>

</metadata>
<g transform="translate(0.000000,293.000000) scale(0.100000,-0.100000)"
fill="currentColor" stroke="none">
<path d="M1093 2745 c-131 -29 -266 -134 -326 -255 -19 -37 -39 -61 -67 -77
-52 -31 -74 -72 -65 -123 6 -33 4 -39 -15 -45 -17 -5 -21 -13 -17 -31 3 -18
-9 -46 -45 -99 -75 -113 -102 -206 -78 -269 12 -32 65 -66 105 -66 45 0 60
-13 45 -39 -19 -36 -14 -117 9 -156 11 -19 17 -37 12 -39 -4 -3 -8 -58 -10
-123 -1 -86 -6 -122 -17 -134 -18 -20 -18 -29 -1 -29 11 0 10 -12 -6 -57 -18
-53 -18 -66 -7 -143 23 -165 23 -175 5 -210 -15 -30 -15 -32 -1 -27 13 5 15 2
10 -18 -4 -18 1 -31 20 -50 25 -25 25 -26 6 -45 -39 -39 -26 -70 54 -137 38
-32 34 -67 -14 -115 -22 -22 -40 -43 -40 -45 0 -5 35 2 62 12 12 5 14 -5 10
-53 -4 -56 -3 -60 28 -85 37 -31 73 -37 63 -10 -4 13 3 10 23 -9 46 -43 118
-69 205 -75 80 -6 95 1 64 27 -29 24 -15 30 16 8 43 -32 125 -32 168 0 31 22
45 16 16 -8 -31 -26 -16 -33 64 -27 87 6 159 32 205 75 20 19 27 22 23 10 -11
-30 31 -22 65 12 28 29 30 35 26 86 -4 45 -2 54 10 49 29 -11 62 -17 62 -11 0
3 -18 22 -40 42 -31 29 -40 43 -40 70 0 28 7 38 44 63 61 42 72 79 37 122 -18
23 -18 23 6 43 20 15 24 25 19 49 -5 23 -3 28 9 23 19 -7 19 -1 -1 30 -18 26
-17 47 7 201 13 82 9 112 -28 201 -3 8 1 10 12 5 16 -6 16 -4 1 19 -12 18 -17
49 -17 109 0 113 -3 146 -11 154 -3 4 3 22 14 41 15 26 19 46 16 91 -2 32 -8
66 -12 75 -6 14 -2 18 21 23 121 25 138 41 137 129 0 66 -33 144 -99 237 -23
32 -31 54 -28 71 4 18 -1 27 -21 36 -23 10 -24 13 -13 42 10 26 9 36 -8 68
-11 20 -37 46 -57 57 -27 16 -46 38 -68 82 -36 72 -135 170 -210 208 -102 52
-219 66 -337 40z m259 -26 c122 -41 211 -119 276 -241 l32 -62 0 -164 c0 -149
2 -166 22 -205 39 -74 28 -213 -23 -296 l-20 -34 -33 37 c-45 48 -53 46 -16
-5 25 -35 29 -48 24 -83 -11 -86 -54 -166 -54 -103 0 13 -7 32 -15 43 -14 19
-14 19 -15 -1 0 -11 -9 -38 -19 -60 l-18 -40 -7 33 c-4 18 -23 52 -41 76 -18
25 -35 57 -37 72 -2 19 -16 37 -48 59 -27 19 -48 43 -54 61 -4 16 -15 44 -22
62 -17 40 -18 63 -3 96 14 30 39 42 50 24 6 -10 14 -9 36 4 28 16 29 16 46
-13 15 -27 20 -29 54 -23 49 9 53 12 46 29 -6 17 12 21 22 5 8 -13 -30 -76
-51 -84 -27 -11 -61 -6 -74 9 -7 8 -17 15 -23 15 -5 0 -2 -9 8 -20 28 -31 78
-36 120 -11 46 27 53 27 89 -6 l30 -28 -17 27 c-14 22 -15 30 -4 39 9 9 11 29
7 67 -6 47 -12 60 -40 84 -20 16 -28 28 -20 28 13 0 13 2 0 10 -8 5 -33 9 -55
9 -22 -1 -32 -3 -22 -6 9 -2 17 -9 17 -14 0 -5 9 -9 19 -9 27 0 78 -45 83 -75
7 -36 -2 -39 -34 -8 -23 22 -30 25 -41 13 -8 -9 -8 -11 0 -6 6 3 14 2 17 -3 4
-6 -7 -8 -24 -6 -16 2 -30 0 -30 -4 0 -5 -18 0 -39 11 -23 11 -69 21 -108 24
-55 3 -71 8 -86 27 l-19 22 6 -27 c6 -27 5 -28 -39 -28 -44 0 -45 1 -39 26 l7
26 -26 -26 c-20 -20 -32 -24 -55 -20 -17 4 -55 -2 -88 -12 -72 -23 -105 -24
-121 -4 -11 13 -16 11 -37 -12 -31 -35 -36 -35 -36 -2 0 16 12 37 31 55 32 30
32 36 -2 19 -49 -27 -68 -137 -26 -159 17 -9 17 -10 2 -6 -11 3 -16 3 -12 -1
4 -4 0 -18 -8 -31 -9 -13 -11 -23 -5 -23 5 0 10 4 10 10 0 5 11 17 25 26 23
15 27 15 68 -5 57 -27 80 -26 114 5 25 22 25 24 3 10 -41 -27 -75 -20 -109 21
-25 30 -28 39 -18 52 10 12 12 11 15 -6 2 -15 13 -23 40 -28 32 -6 40 -3 60
20 21 25 26 26 49 16 21 -10 28 -9 34 1 13 20 42 -3 54 -40 13 -45 23 -40 27
16 l3 47 40 0 40 0 6 -65 c3 -36 11 -78 17 -95 6 -16 14 -42 17 -57 3 -16 19
-35 40 -48 33 -20 48 -50 25 -50 -5 0 -10 -9 -10 -21 0 -11 -5 -17 -10 -14 -6
4 -8 11 -4 16 8 13 -4 59 -14 59 -5 0 -7 -13 -4 -29 3 -20 -2 -35 -18 -51 -19
-19 -29 -21 -83 -17 -103 9 -125 16 -135 47 -7 19 -7 32 1 40 14 14 7 12 -46
-15 -25 -12 -39 -28 -43 -45 -3 -14 -10 -34 -17 -45 -6 -11 -21 -40 -34 -65
l-22 -45 -15 37 c-9 21 -16 45 -16 55 -1 17 -2 16 -15 -1 -8 -11 -15 -30 -15
-43 0 -13 -4 -23 -9 -23 -12 0 -29 45 -40 105 -10 52 1 87 33 114 9 8 16 19
16 25 -1 6 -18 -8 -40 -32 l-39 -43 -32 68 c-29 59 -33 78 -33 148 -1 64 4 88
22 122 20 39 22 56 22 203 0 149 2 164 24 210 65 135 187 239 313 269 73 17
199 12 265 -10z m-641 -679 c-45 -100 -29 -215 44 -330 18 -29 29 -60 31 -88
1 -27 12 -60 30 -89 37 -60 55 -67 47 -19 -3 20 -4 36 -1 36 3 0 20 -24 39
-52 l34 -53 5 55 c6 65 34 116 78 147 31 20 35 21 70 7 20 -9 42 -22 48 -29
31 -40 98 -39 146 1 41 34 85 40 117 17 40 -30 65 -82 71 -143 l5 -55 30 47
c35 55 49 61 43 18 -5 -34 2 -38 24 -12 28 31 50 84 53 129 3 28 15 62 34 92
67 104 83 222 42 316 -20 46 -21 65 -19 215 l3 164 38 -33 c31 -27 37 -40 37
-71 0 -22 -4 -42 -10 -45 -16 -10 -12 -25 8 -25 33 0 45 -15 31 -38 -11 -17
-7 -27 35 -83 84 -112 112 -195 84 -249 -18 -34 -70 -67 -118 -75 -22 -4 -40
-10 -40 -13 0 -4 7 -26 16 -49 14 -37 15 -50 5 -86 -7 -23 -24 -57 -38 -75
-25 -33 -25 -33 -4 -39 26 -7 27 -20 1 -28 -19 -6 -19 -7 3 -36 18 -25 22 -44
22 -105 0 -52 -4 -74 -12 -74 -16 0 -17 -16 -2 -26 18 -11 49 -87 49 -122 0
-18 -12 -78 -26 -133 -14 -54 -22 -104 -18 -110 3 -6 1 -15 -6 -19 -9 -6 -9
-13 -1 -28 13 -24 14 -71 3 -89 -4 -7 -19 -16 -32 -21 -25 -9 -25 -10 13 -25
20 -9 37 -23 37 -32 0 -8 -22 -37 -49 -63 -54 -53 -70 -90 -52 -128 11 -26 3
-32 -17 -12 -16 16 -15 8 3 -35 22 -52 19 -110 -5 -138 l-21 -24 6 35 7 35
-38 -38 c-47 -48 -95 -73 -176 -92 -88 -21 -86 -21 -80 30 5 49 -7 59 -27 21
-17 -31 -51 -46 -106 -46 -55 0 -89 15 -106 46 -20 38 -32 28 -27 -21 l6 -45
-42 6 c-96 13 -165 45 -220 101 l-38 38 7 -35 6 -35 -21 24 c-24 28 -27 86 -5
138 18 43 19 51 3 35 -20 -20 -28 -14 -17 12 17 37 3 72 -51 128 -28 28 -50
58 -50 65 0 8 17 21 38 30 37 15 37 16 12 25 -13 5 -28 14 -32 21 -11 18 -10
65 3 89 8 15 8 22 0 28 -7 3 -9 13 -6 21 3 8 -6 59 -20 112 -14 53 -25 112
-25 130 0 34 31 110 49 121 15 10 14 26 -1 26 -9 0 -13 22 -13 74 0 61 4 80
22 105 22 29 22 30 3 36 -26 8 -26 21 0 28 20 5 20 6 -5 43 -42 62 -51 106
-31 157 9 23 16 45 16 49 0 3 -17 9 -37 13 -79 15 -133 63 -133 119 1 48 41
136 95 206 42 55 47 65 36 83 -14 22 -2 37 32 37 21 0 21 0 2 37 -19 39 -9 70
37 108 l33 28 5 -159 c5 -153 4 -161 -19 -214z"/>
</g>
</svg>
